<?xml version="1.0" encoding="utf-8"?>
<!DOCTYPE svg PUBLIC "-//W3C//DTD SVG 1.1//EN" "http://www.w3.org/Graphics/SVG/1.1/DTD/svg11.dtd">
<svg viewBox="0 0 120 33" xmlns="http://www.w3.org/2000/svg" id="povio-logo" style="width:120px;height:42px"><path d="m47.07 6.23a1.33 1.33 0 1 1 -1.35 1.33 1.34 1.34 0 0 1  1.35-1.33zm-9.07 17.47 4.66-12h2l-5.83 15h-1.63l0 0-5.81-15h2zm8.08 3v-15h1.92v15zm11.19-15.38a7.77 7.77 0 0 1 7.6 7.91 7.58 7.58 0 1 1 -15.16 0 7.75 7.75 0 0 1  7.56-7.91zm-33.18 0a7.77 7.77 0 0 1 7.6 7.91 7.58 7.58 0 1 1 -15.16 0 7.75 7.75 0 0 1  7.57-7.91zm-16.53 0a7.71 7.71 0 0 1 7.57 7.82 7.74 7.74 0 0 1 -7.56 7.86 7.32 7.32 0 0 1 -5.69-2.76v8.76h-1.88v-13.85a7.71 7.71 0 0 1 7.57-7.83zm49.71 13.9a5.85 5.85 0 0 0 5.69-6 5.7 5.7 0 1 0 -11.38 0 5.85 5.85 0 0 0  5.69 6zm-49.7-.05a5.87 5.87 0 0 0 5.69-6 5.82 5.82 0 0 0 -5.69-5.94 5.82 5.82 0 0 0 -5.69 5.94 5.87 5.87 0 0 0  5.69 6zm16.53.05a5.85 5.85 0 0 0 5.69-6 5.92 5.92 0 0 0 -5.69-6.1 5.92 5.92 0 0 0 -5.69 6.1 5.85 5.85 0 0 0  5.69 6z" fill="#000000"></path><path d="m69 27v-27h1.47v27zm18.63-12.47v-2.62h1.51v15.09h-1.51v-2.63a8 8 0 0 1 -11.63.63 7.49 7.49 0 0 1 -2.28-5.54 7.43 7.43 0 0 1  2.28-5.46 8 8 0 0 1  11.66.58zm12.54-2.84a7.58 7.58 0 0 1 5.55 2.22 7.49 7.49 0 0 1  2.28 5.54 7.43 7.43 0 0 1 -2.24 5.5 8 8 0 0 1 -11.76-.76v2.81h-1.55v-27h1.55v14.72a7.56 7.56 0 0 1 6.18-3.03zm18.24 7.9a3.86 3.86 0 0 1 1.59 3.25 3.93 3.93 0 0 1 -1.43 3.16 5.3 5.3 0 0 1 -3.57 1.25 5.71 5.71 0 0 1 -5.3-3.17l1.29-.76a5.1 5.1 0 0 0 1.51 1.75 4.06 4.06 0 0 0  2.5.69q3.46 0 3.46-2.91a2.77 2.77 0 0 0 -1.21-2.22 8.13 8.13 0 0 0 -1-.49l-1.67-.64a9.36 9.36 0 0 1 -2.65-1.31 3.3 3.3 0 0 1 -1.18-2.73 3.45 3.45 0 0 1  1.18-2.62 4.05 4.05 0 0 1  3-1.13 5.88 5.88 0 0 1  4.3 1.75l-1.1.95a4.36 4.36 0 0 0 -3.2-1.24q-2.65 0-2.65 2.29a2.06 2.06 0 0 0  .81 1.68 7.29 7.29 0 0 0  2.1 1 21.55 21.55 0 0 1  2.06.82 8.18 8.18 0 0 1  1.17.64zm-32.36 4.34a6.24 6.24 0 0 0 0-8.92 6.39 6.39 0 0 0 -9 0 6.24 6.24 0 0 0  0 8.92 6.39 6.39 0 0 0  9 0zm18.61 0a6.24 6.24 0 0 0 0-8.92 6.39 6.39 0 0 0 -9 0 6.25 6.25 0 0 0  0 8.92 6.39 6.39 0 0 0  9 0z" fill="#000000" opacity=".5"></path></svg>