<?xml version="1.0" encoding="utf-8"?>
<!-- Generator: Adobe Illustrator 16.0.0, SVG Export Plug-In . SVG Version: 6.00 Build 0)  -->
<!DOCTYPE svg PUBLIC "-//W3C//DTD SVG 1.1//EN" "http://www.w3.org/Graphics/SVG/1.1/DTD/svg11.dtd">
<svg version="1.1" id="Layer_1" xmlns="http://www.w3.org/2000/svg" xmlns:xlink="http://www.w3.org/1999/xlink" x="0px" y="0px"
	 width="598.446px" height="88px" viewBox="-89.591 0 598.446 88" enable-background="new -89.591 0 598.446 88"
	 xml:space="preserve">
<rect x="135.819" y="14" display="none" fill="none" width="186.001" height="60"/>
<g display="none">
	<circle display="inline" fill="none" cx="-40.9" cy="44" r="27.267"/>
</g>
<path display="none" fill="#414141" d="M135.819,57.637h3.039V44.109h9.086v-2.82h-9.086v-8.103h9.375v-2.82h-12.414V57.637z
	 M154.913,57.637h3.041V30.366h-3.041V57.637z M187.911,51.488l-21.283-22.28v28.429h3.041V36.623l21.283,22.244V30.366h-3.041
	V51.488z M196.877,57.637h3.33l3.293-7.74h11.656l3.221,7.74h3.365l-12.271-28.572L196.877,57.637z M204.733,47.076l4.668-10.924
	l4.562,10.924H204.733z M248.935,51.488l-21.283-22.28v28.429h3.041V36.623l21.283,22.244V30.366h-3.041V51.488z M259.222,44.109
	c0,7.743,6.516,13.999,14.225,13.999c2.896,0,5.791-0.978,8.146-2.678v-3.761c-2.172,2.17-5.176,3.617-8.252,3.617
	c-6.116,0-11.075-5.281-11.075-11.286c0-6.004,4.922-11.284,11.004-11.284c3.147,0,6.151,1.374,8.323,3.616v-3.761
	c-2.426-1.809-5.104-2.677-8.146-2.677C265.627,29.896,259.222,36.298,259.222,44.109z M303.426,33.187v-2.82h-14.151v27.271h14.151
	v-2.82h-11.11V44.109h10.785v-2.82h-10.785v-8.103L303.426,33.187L303.426,33.187z"/>
<g>
	<path fill="#414141" d="M20.322,31.708h9.434v34.25h11.42v-34.25h9.434v-9.67H20.322V31.708z M77.852,20.585
		c-12.641,0-24.289,9.317-24.289,22.598c0,14.214,10.194,24.232,24.289,24.232c14.096,0,24.288-10.019,24.288-24.232
		C102.139,29.902,90.493,20.585,77.852,20.585z M77.852,56.347c-6.812,0-12.406-5.533-12.406-13.108
		c0-6.056,5.594-11.587,12.406-11.587c6.813,0,12.406,5.534,12.406,11.587C90.258,50.813,84.665,56.347,77.852,56.347z
		 M128.02,39.163l-2.912-0.873c-1.981-0.64-5.069-1.633-5.069-4.192c0-2.448,2.795-3.67,4.894-3.67c2.795,0,5.474,1.166,7.571,2.912
		l4.545-8.853c-3.904-2.214-9.321-3.609-13.749-3.609c-8.793,0-15.141,5.823-15.141,14.736c0,8.503,4.717,10.367,11.88,12.409
		c2.449,0.697,6.931,1.802,6.931,5.005c0,3.084-2.852,4.425-5.531,4.425c-3.903,0-7.279-2.039-10.136-4.538l-4.893,9.2
		c4.485,3.146,9.902,5.008,15.434,5.008c4.428,0,9.027-1.225,12.465-4.134c3.496-2.969,4.543-7.455,4.543-11.823
		C138.854,44.057,134.136,40.969,128.02,39.163z M173.983,38.991h-16.484V22.038h-11.42v43.92h11.42V47.959h16.483v17.999h11.416
		v-43.92h-11.416v16.953H173.983z M207.354,56.289V22.038h-11.413v43.92h25.103v-9.67L207.354,56.289L207.354,56.289z"/>
	<rect x="20.322" y="-4.302" fill="none" width="218.675" height="96.604"/>
	<g>
		
			<linearGradient id="SVGID_1_" gradientUnits="userSpaceOnUse" x1="-5808.9722" y1="6689.2041" x2="-5888.9531" y2="6704.2598" gradientTransform="matrix(0.185 -0.9827 0.9827 0.185 -5544.5093 -6942.6714)">
			<stop  offset="0.35" style="stop-color:#FFFDF3"/>
			<stop  offset="0.65" style="stop-color:#F9F5E0"/>
		</linearGradient>
		<circle fill="url(#SVGID_1_)" cx="-45.689" cy="43.999" r="40.691"/>
		
			<linearGradient id="SVGID_2_" gradientUnits="userSpaceOnUse" x1="-1108.6562" y1="4508.5439" x2="-1158.1847" y2="4581.0435" gradientTransform="matrix(0.8257 -0.5641 0.5641 0.8257 -1673.5419 -4347.998)">
			<stop  offset="0.35" style="stop-color:#CC2952"/>
			<stop  offset="0.65" style="stop-color:#C4275C"/>
		</linearGradient>
		<path fill="url(#SVGID_2_)" d="M-37.569,0.865c-23.823-4.484-46.772,11.193-51.256,35.016
			c-4.484,23.824,11.193,46.77,35.016,51.256C-29.985,91.621-7.037,75.944-2.553,52.12C1.931,28.298-13.747,5.349-37.569,0.865z
			 M-6.476,51.382c-4.076,21.659-24.938,35.91-46.594,31.833c-16.741-3.152-29.057-16.335-31.901-32.163
			c0.216,0.822,0.452,1.643,0.719,2.448c0.413,1.239,0.887,2.458,1.416,3.647c0.526,1.186,1.113,2.344,1.754,3.458
			c0.637,1.119,1.327,2.204,2.067,3.24c0.736,1.037,1.524,2.037,2.355,2.989c1.657,1.899,3.487,3.613,5.452,5.126
			c1.961,1.513,4.054,2.819,6.241,3.903c1.096,0.542,2.211,1.028,3.349,1.459c1.134,0.428,2.289,0.798,3.454,1.113
			c1.168,0.312,2.343,0.566,3.522,0.759c1.183,0.196,2.371,0.33,3.55,0.404c1.185,0.073,2.364,0.092,3.531,0.044
			c1.172-0.038,2.325-0.139,3.462-0.295c1.136-0.156,2.27-0.367,3.387-0.628c1.115-0.269,2.223-0.582,3.306-0.958
			c1.08-0.366,2.141-0.796,3.177-1.271c1.029-0.47,2.036-0.993,3.005-1.56c0.972-0.569,1.909-1.181,2.81-1.835
			c0.9-0.659,1.764-1.352,2.583-2.085c1.644-1.464,3.12-3.075,4.414-4.798c1.296-1.721,2.413-3.556,3.332-5.467
			c0.457-0.951,0.867-1.925,1.229-2.917c0.36-0.992,0.668-1.988,0.926-3.002c0.26-1.009,0.466-2.032,0.621-3.052
			c0.156-1.025,0.261-2.048,0.311-3.069c0.051-1.018,0.048-2.04,0.001-3.045c-0.049-1.009-0.155-2.075-0.301-3.053
			c-0.15-0.979-0.354-2.023-0.598-2.981c-0.241-0.955-0.534-1.899-0.871-2.823c-0.334-0.924-0.713-1.824-1.138-2.701
			c-0.421-0.878-0.885-1.73-1.384-2.551c-0.502-0.821-1.042-1.609-1.615-2.371c-0.574-0.759-1.181-1.482-1.825-2.17
			c-1.272-1.376-2.671-2.61-4.163-3.68c-1.487-1.073-3.061-1.983-4.7-2.73c-0.816-0.373-1.647-0.706-2.49-0.986
			c-0.841-0.292-1.698-0.531-2.554-0.732c-0.859-0.197-1.721-0.353-2.586-0.465c-0.864-0.109-1.731-0.178-2.588-0.202
			c-0.859-0.023-1.713-0.003-2.562,0.061c-0.844,0.056-1.679,0.163-2.499,0.302c-0.821,0.143-1.632,0.323-2.43,0.544
			c-0.794,0.22-1.581,0.479-2.347,0.773c-0.765,0.295-1.509,0.629-2.231,0.991c-0.725,0.369-1.427,0.77-2.101,1.197
			c-0.674,0.431-1.319,0.899-1.94,1.384c-0.618,0.491-1.208,1.007-1.766,1.549c-1.116,1.082-2.113,2.259-2.969,3.511
			c-0.854,1.243-1.577,2.563-2.158,3.922c-0.573,1.358-1.013,2.755-1.304,4.164c-0.145,0.703-0.252,1.412-0.324,2.115
			c-0.072,0.706-0.107,1.412-0.107,2.111s0.034,1.39,0.103,2.075c0.065,0.684,0.168,1.359,0.303,2.02
			c0.133,0.661,0.301,1.31,0.499,1.948c0.193,0.638,0.421,1.263,0.676,1.871c0.255,0.604,0.541,1.195,0.852,1.765
			c0.308,0.572,0.645,1.117,1.009,1.645c0.72,1.053,1.538,2.015,2.428,2.87c0.89,0.859,1.847,1.611,2.854,2.251
			c1.01,0.64,2.065,1.17,3.146,1.582c1.077,0.413,2.18,0.706,3.283,0.891c1.101,0.172,2.203,0.238,3.277,0.191
			c0.534-0.022,1.066-0.072,1.587-0.146c0.522-0.078,1.037-0.18,1.539-0.307c1.005-0.251,1.966-0.601,2.859-1.035
			c0.9-0.432,1.732-0.946,2.491-1.527c0.759-0.581,1.441-1.232,2.036-1.924c0.601-0.7,1.109-1.445,1.538-2.212
			c0.421-0.769,0.756-1.562,1.001-2.363c0.245-0.806,0.401-1.609,0.47-2.405c0.071-0.796,0.051-1.577-0.042-2.325
			c-0.093-0.752-0.267-1.504-0.505-2.188c-0.237-0.685-0.544-1.349-0.9-1.928c-0.358-0.575-0.766-1.1-1.213-1.562
			c-0.444-0.456-0.929-0.855-1.432-1.188c-0.506-0.335-1.037-0.605-1.569-0.809c-0.534-0.204-1.069-0.341-1.594-0.419
			c-0.523-0.074-1.037-0.087-1.522-0.041c-0.097,0.009-0.187,0.022-0.278,0.032c-0.907,0.085-1.787,0.503-2.433,1.252
			c-1.312,1.525-1.139,3.824,0.389,5.138c0.038,0.035,0.08,0.064,0.118,0.1l-0.015-0.008c1.427,1.332,1.561,3.556,0.279,5.051
			c-0.604,0.699-1.418,1.114-2.268,1.234c-0.143,0.02-0.286,0.038-0.431,0.055c-0.489,0.044-1,0.027-1.524-0.045
			c-0.525-0.076-1.058-0.218-1.59-0.421c-0.532-0.205-1.06-0.476-1.566-0.812c-0.503-0.333-0.982-0.732-1.429-1.199
			c-0.445-0.458-0.854-0.98-1.206-1.56c-0.358-0.577-0.662-1.216-0.9-1.905c-0.237-0.688-0.412-1.412-0.505-2.167
			c-0.1-0.751-0.116-1.532-0.049-2.324c0.067-0.791,0.223-1.604,0.464-2.404c0.242-0.802,0.573-1.597,1-2.369
			c0.417-0.772,0.929-1.511,1.523-2.211s1.276-1.35,2.032-1.934c0.757-0.58,1.589-1.101,2.486-1.534
			c0.897-0.436,1.857-0.785,2.858-1.039c0.503-0.129,1.019-0.23,1.537-0.31c0.524-0.078,1.054-0.125,1.592-0.152
			c1.073-0.049,2.175,0.011,3.275,0.188c1.102,0.175,2.204,0.471,3.288,0.88c1.079,0.411,2.133,0.934,3.146,1.575
			c1.006,0.639,1.971,1.388,2.859,2.247c0.894,0.85,1.711,1.812,2.438,2.862c0.362,0.525,0.702,1.072,1.014,1.646
			c0.311,0.568,0.598,1.159,0.855,1.761c0.254,0.606,0.483,1.232,0.684,1.867c0.195,0.639,0.365,1.338,0.502,1.997
			c0.133,0.66,0.236,1.384,0.304,2.069c0.067,0.683,0.099,1.376,0.099,2.077c-0.001,0.698-0.037,1.4-0.111,2.107
			c-0.075,0.711-0.186,1.412-0.331,2.115c-0.295,1.407-0.731,2.807-1.312,4.162c-0.581,1.356-1.308,2.668-2.167,3.916
			c-0.86,1.244-1.856,2.421-2.977,3.502c-0.561,0.539-1.152,1.055-1.771,1.543c-0.621,0.492-1.269,0.951-1.943,1.378
			c-0.677,0.432-1.375,0.83-2.101,1.196c-0.726,0.36-1.471,0.694-2.238,0.984c-0.767,0.3-1.551,0.553-2.346,0.771
			c-0.799,0.219-1.612,0.397-2.431,0.535c-0.82,0.143-1.653,0.243-2.501,0.303c-0.846,0.062-1.702,0.075-2.561,0.051
			c-0.86-0.026-1.723-0.091-2.589-0.208c-0.863-0.114-1.729-0.272-2.583-0.472c-1.716-0.401-3.409-0.98-5.044-1.73
			c-1.635-0.747-3.207-1.664-4.694-2.741c-1.484-1.074-2.878-2.311-4.15-3.688c-0.639-0.691-1.245-1.418-1.82-2.174
			c-0.569-0.764-1.108-1.554-1.606-2.379c-0.502-0.822-0.967-1.671-1.383-2.552c-0.417-0.88-0.796-1.779-1.132-2.705
			c-0.331-0.923-0.62-1.865-0.865-2.828c-0.239-0.954-0.435-1.931-0.583-2.91c-0.149-0.976-0.25-1.974-0.303-2.979
			c-0.053-1.008-0.054-2.023-0.005-3.047c0.047-1.022,0.15-2.046,0.302-3.068c0.156-1.023,0.36-2.043,0.614-3.056
			c0.254-1.009,0.565-2.016,0.92-3.003c0.361-0.988,0.768-1.965,1.224-2.916c0.913-1.913,2.024-3.75,3.32-5.474
			c1.288-1.724,2.763-3.337,4.4-4.807c0.82-0.733,1.682-1.429,2.58-2.089c0.898-0.655,1.834-1.271,2.803-1.844
			c0.972-0.571,1.974-1.099,3.003-1.573c1.035-0.477,2.094-0.905,3.176-1.275c1.083-0.371,2.184-0.698,3.304-0.963
			c1.118-0.27,2.25-0.477,3.388-0.636c1.137-0.16,2.294-0.26,3.458-0.305c1.17-0.044,2.348-0.032,3.531,0.038
			c1.178,0.072,2.366,0.204,3.55,0.395c1.179,0.19,2.357,0.442,3.523,0.753c1.168,0.31,2.32,0.681,3.456,1.106
			c1.138,0.431,2.253,0.91,3.35,1.447c2.191,1.079,4.298,2.374,6.256,3.891C-4.101,28.446-5.529,46.352-6.476,51.382z"/>
	</g>
	<rect x="238.999" y="-4.302" fill="none" width="299.472" height="96.604"/>
	<path fill="#414141" d="M238.999,65.955h4.893V44.177h14.627v-4.54h-14.627V26.592h15.094v-4.54h-19.986V65.955z M269.739,65.955
		h4.896V22.051h-4.896V65.955z M322.867,56.057l-34.264-35.871v45.77h4.896V32.123l34.265,35.814V22.051h-4.896V56.057z
		 M337.308,65.955h5.36l5.303-12.462h18.764l5.19,12.462h5.414l-19.754-45.999L337.308,65.955z M349.956,48.953l7.515-17.588
		l7.343,17.588H349.956z M421.122,56.057l-34.269-35.871v45.77h4.897V32.123l34.266,35.814V22.051h-4.895V56.057L421.122,56.057z
		 M437.686,44.177c0,12.466,10.49,22.536,22.902,22.536c4.659,0,9.323-1.577,13.113-4.311v-6.057
		c-3.497,3.494-8.336,5.821-13.287,5.821c-9.849,0-17.833-8.5-17.833-18.169c0-9.666,7.928-18.167,17.721-18.167
		c5.063,0,9.902,2.212,13.399,5.821v-6.055c-3.905-2.911-8.218-4.312-13.113-4.312C447.996,21.293,437.686,31.601,437.686,44.177z
		 M508.855,26.592v-4.54h-22.783v43.906h22.783v-4.541h-17.889v-17.24h17.365v-4.54h-17.365V26.592H508.855L508.855,26.592z"/>
</g>
</svg>
